<svg width="24" height="24" viewBox="0 0 24 24" fill="none" xmlns="http://www.w3.org/2000/svg">
<g clip-path="url(#clip0_55_108)">
<mask id="mask0_55_108" style="mask-type:luminance" maskUnits="userSpaceOnUse" x="0" y="0" width="24" height="24">
<path d="M24 0H0V24H24V0Z" fill="white"/>
</mask>
<g mask="url(#mask0_55_108)">
<path d="M5.17583 5.81385C6.48861 4.8583 6.77821 3.01946 5.82267 1.70668C4.86712 0.393906 3.02828 0.104307 1.7155 1.05984C0.402725 2.01539 0.113126 3.85423 1.06866 5.16701C2.02421 6.47979 3.86305 6.76939 5.17583 5.81385Z" stroke="black" stroke-miterlimit="10"/>
<path d="M5.17331 14.3746C6.48609 13.4191 6.77569 11.5803 5.82015 10.2675C4.86461 8.95469 3.02577 8.66509 1.71298 9.62064C0.400206 10.5762 0.110607 12.415 1.06615 13.7278C2.02169 15.0406 3.86053 15.3302 5.17331 14.3746Z" stroke="black" stroke-miterlimit="10"/>
<path d="M5.17079 22.9354C6.48357 21.9799 6.77317 20.141 5.81763 18.8283C4.86209 17.5155 3.02325 17.2259 1.71047 18.1814C0.397689 19.137 0.108089 20.9758 1.06363 22.2886C2.01917 23.6014 3.85801 23.891 5.17079 22.9354Z" stroke="black" stroke-miterlimit="10"/>
<path d="M21.1803 6.31222C22.768 5.97214 23.7794 4.40936 23.4393 2.82165C23.0992 1.23395 21.5364 0.22256 19.9487 0.562644C18.361 0.902728 17.3496 2.4655 17.6897 4.05321C18.0298 5.64091 19.5926 6.6523 21.1803 6.31222Z" stroke="black" stroke-miterlimit="10"/>
<path d="M12.6201 6.3151C14.2078 5.97501 15.2192 4.41223 14.8791 2.82453C14.539 1.23683 12.9763 0.225428 11.3886 0.565512C9.80087 0.905596 8.78947 2.46838 9.12956 4.05608C9.46964 5.64379 11.0324 6.65518 12.6201 6.3151Z" stroke="black" stroke-miterlimit="10"/>
<path d="M21.1731 14.8724C22.7608 14.5323 23.7722 12.9695 23.4321 11.3818C23.0921 9.79413 21.5293 8.78274 19.9416 9.12282C18.3539 9.46291 17.3425 11.0257 17.6826 12.6134C18.0226 14.2011 19.5854 15.2125 21.1731 14.8724Z" stroke="black" stroke-miterlimit="10"/>
<path d="M12.613 14.8753C14.2007 14.5352 15.2121 12.9724 14.872 11.3847C14.5319 9.797 12.9691 8.78561 11.3814 9.1257C9.79374 9.46578 8.78235 11.0285 9.12243 12.6162C9.46252 14.2039 11.0253 15.2153 12.613 14.8753Z" stroke="black" stroke-miterlimit="10"/>
<path d="M21.4746 23.3509C23.0176 22.8453 23.8587 21.1847 23.3532 19.6416C22.8476 18.0986 21.187 17.2576 19.644 17.7631C18.1009 18.2686 17.2599 19.9293 17.7654 21.4723C18.2709 23.0153 19.9316 23.8564 21.4746 23.3509Z" stroke="black" stroke-miterlimit="10"/>
<path d="M12.9101 23.3559C14.4531 22.8504 15.2941 21.1897 14.7886 19.6467C14.2831 18.1037 12.6224 17.2627 11.0794 17.7682C9.53638 18.2737 8.69533 19.9344 9.20085 21.4774C9.70638 23.0204 11.3671 23.8615 12.9101 23.3559Z" stroke="black" stroke-miterlimit="10"/>
</g>
</g>
<defs>
<clipPath id="clip0_55_108">
<rect width="24" height="24" fill="white"/>
</clipPath>
</defs>
</svg>
