<svg width="24" height="27" viewBox="0 0 24 27" fill="none" xmlns="http://www.w3.org/2000/svg">
<g clip-path="url(#clip0_55_31)">
<mask id="mask0_55_31" style="mask-type:luminance" maskUnits="userSpaceOnUse" x="0" y="0" width="24" height="27">
<path d="M0 0H24V26.2054H0V0Z" fill="white"/>
</mask>
<g mask="url(#mask0_55_31)">
<path d="M12 17.6161C14.5082 17.6161 16.5416 15.5876 16.5416 13.0853C16.5416 10.5828 14.5082 8.55432 12 8.55432C9.49181 8.55432 7.45842 10.5829 7.45842 13.0853C7.45842 15.5876 9.49181 17.6161 12 17.6161Z" stroke="black" stroke-linecap="round" stroke-linejoin="round"/>
<path d="M13.6119 17.3209C13.0969 17.5161 12.5507 17.6159 12 17.6155C11.4322 17.6155 10.8671 17.5058 10.3572 17.3085C8.64506 17.9578 7.42755 19.6086 7.42755 21.5448C7.42755 24.047 9.46106 26.0757 11.9691 26.0757C14.4772 26.0757 16.5107 24.047 16.5107 21.5448C16.5107 19.6205 15.3078 17.9777 13.6119 17.3209Z" stroke="black" stroke-linecap="round" stroke-linejoin="round"/>
<path d="M19.2978 12.7933C18.2381 12.7933 17.2633 13.1566 16.4906 13.7641C16.3151 14.9296 15.6942 15.9485 14.8072 16.6458C14.7732 16.8703 14.7562 17.0971 14.7562 17.3241C14.7562 17.5544 14.7741 17.7869 14.8083 18.0107C15.6768 18.7052 16.2842 19.7113 16.4587 20.8594C17.264 21.5051 18.2656 21.8564 19.2978 21.8551C21.8059 21.8551 23.8394 19.8264 23.8394 17.3241C23.8394 14.8219 21.8059 12.7933 19.2978 12.7933ZM9.16735 17.9804C9.19779 17.7688 9.21318 17.5553 9.21341 17.3415C9.21332 17.0981 9.19358 16.8551 9.15438 16.6149C8.29985 15.9285 7.70011 14.9398 7.51758 13.8117C6.71128 13.1626 5.70695 12.8093 4.67183 12.8106C2.16376 12.8106 0.130249 14.8393 0.130249 17.3415C0.130249 19.8436 2.16376 21.8723 4.67183 21.8723C5.68777 21.8738 6.67465 21.5334 7.4736 20.9059C7.6416 19.7221 8.26742 18.6853 9.16735 17.9804Z" stroke="black" stroke-linecap="round" stroke-linejoin="round"/>
<path d="M3.06642 13.103C3.57934 12.9096 4.12303 12.8107 4.67118 12.8111C5.23641 12.8111 5.77609 12.9149 6.27464 13.103C6.72074 12.9348 7.13761 12.6976 7.50992 12.3998C7.68493 11.2511 8.29219 10.245 9.16087 9.54992C9.19498 9.32614 9.21276 9.09742 9.21276 8.86443C9.21276 6.36233 7.17937 4.33362 4.67131 4.33362C2.16324 4.33362 0.12973 6.36233 0.12973 8.86443C0.12973 10.8029 1.35049 12.4565 3.06642 13.1035V13.103ZM16.495 12.4386C16.8423 12.7156 17.2281 12.9403 17.6404 13.1057C18.1684 12.8986 18.7306 12.7926 19.2978 12.7933C19.883 12.7933 20.4638 12.9089 20.9856 13.1176C22.6739 12.457 23.8703 10.818 23.8703 8.89907C23.8703 6.39697 21.8369 4.36826 19.3287 4.36826C16.8206 4.36826 14.7871 6.39697 14.7871 8.89907C14.7871 9.11857 14.8035 9.33431 14.8338 9.54564C15.7148 10.2488 16.3275 11.2716 16.495 12.4386Z" stroke="black" stroke-linecap="round" stroke-linejoin="round"/>
<path d="M12 0.129761C9.49194 0.129761 7.45842 2.15847 7.45842 4.6607C7.45842 4.88721 7.47581 5.10931 7.50772 5.3266C8.38223 6.02559 8.99287 7.0402 9.16359 8.19804C9.51589 8.47957 9.90812 8.7071 10.3274 8.87316C10.8598 8.6624 11.4274 8.55437 12 8.5548C12.5912 8.5548 13.1546 8.66831 13.6726 8.87316C14.0943 8.70612 14.4886 8.4769 14.8424 8.19311C15.0213 7.05473 15.6253 6.0575 16.4868 5.36656C16.5232 5.13694 16.5416 4.90122 16.5416 4.6607C16.5416 2.15847 14.5081 0.129761 12 0.129761Z" stroke="black" stroke-linecap="round" stroke-linejoin="round"/>
</g>
</g>
<defs>
<clipPath id="clip0_55_31">
<rect width="24" height="26.2054" fill="white"/>
</clipPath>
</defs>
</svg>
