<svg width="24" height="24" viewBox="0 0 24 24" fill="none" xmlns="http://www.w3.org/2000/svg">
<g clip-path="url(#clip0_55_122)">
<mask id="mask0_55_122" style="mask-type:luminance" maskUnits="userSpaceOnUse" x="0" y="0" width="24" height="24">
<path d="M24 0H0V24H24V0Z" fill="white"/>
</mask>
<g mask="url(#mask0_55_122)">
<path d="M17.03 6.97H21.3C22.52 6.97 23.5 7.96 23.5 9.17V21.29C23.5 22.51 22.51 23.49 21.3 23.49H9.17C7.95 23.49 6.97 22.5 6.97 21.29V17.03M2.71 17.03H14.83C16.05 17.03 17.03 16.04 17.03 14.83V2.7C17.03 1.48 16.04 0.5 14.83 0.5H2.7C1.49 0.5 0.5 1.49 0.5 2.7V14.83C0.5 16.05 1.49 17.03 2.7 17.03H2.71Z" stroke="black" stroke-miterlimit="10"/>
</g>
</g>
<defs>
<clipPath id="clip0_55_122">
<rect width="24" height="24" fill="white"/>
</clipPath>
</defs>
</svg>
