<svg width="24" height="27" viewBox="0 0 24 27" fill="none" xmlns="http://www.w3.org/2000/svg">
<g clip-path="url(#clip0_55_53)">
<mask id="mask0_55_53" style="mask-type:luminance" maskUnits="userSpaceOnUse" x="0" y="0" width="24" height="27">
<path d="M0 0H24V26.7845H0V0Z" fill="white"/>
</mask>
<g mask="url(#mask0_55_53)">
<path d="M12.4038 22.7504L5.55023 18.7969C4.74484 18.3323 4.09193 17.0859 4.09193 16.0133V8.36342M8.12738 2.5224C7.82625 2.70446 7.63677 3.11444 7.63677 3.69283V5.83997M11.5962 8.12421V4.03453M19.9081 18.4215L16.3631 16.3765M16.3631 20.945L18.4498 22.1487C18.8019 22.3521 19.1251 22.372 19.3771 22.2399L19.4171 22.2175" stroke="black" stroke-linecap="round" stroke-linejoin="round"/>
<path d="M7.63691 10.4084V13.9683C7.63691 15.0412 8.28968 16.2873 9.09521 16.7519L12.4038 18.6607" stroke="black" stroke-linecap="round" stroke-linejoin="round"/>
<path d="M22.4091 5.70377L13.054 0.307481C12.6829 0.0932046 12.344 0.0825969 12.0867 0.238531L8.12738 2.52291C8.38462 2.36737 8.72353 2.37758 9.09467 2.59186L18.4498 7.98801C19.2552 8.45263 19.9081 9.69904 19.9081 10.7716V21.0471C19.9081 21.6253 19.7182 22.0349 19.4169 22.217L23.3764 19.9333C23.6775 19.7511 23.8674 19.3411 23.8674 18.7627V8.48737C23.8674 7.41427 23.2145 6.16825 22.4091 5.70377Z" stroke="black" stroke-linecap="round" stroke-linejoin="round"/>
<path d="M0.623207 6.85126C0.321814 7.03331 0.132599 7.4433 0.132599 8.02169V18.2971C0.132599 19.3701 0.785372 20.6161 1.5909 21.0807L10.946 26.477C11.2982 26.6804 11.6213 26.7003 11.8734 26.5683L11.9132 26.5458" stroke="black" stroke-linecap="round" stroke-linejoin="round"/>
<path d="M14.9048 10.033L5.5497 4.63688C5.1787 4.42274 4.83978 4.412 4.58254 4.56806L0.623207 6.85217C0.880445 6.69664 1.21923 6.70685 1.59037 6.92113L10.9455 12.3174C11.7509 12.782 12.4038 14.0284 12.4038 15.1009V25.3763C12.4038 25.9547 12.2139 26.3642 11.9128 26.5464L15.8721 24.2625C16.1732 24.0805 16.3631 23.6705 16.3631 23.0921V12.8166C16.3631 11.7437 15.7103 10.4977 14.9048 10.033Z" stroke="black" stroke-linecap="round" stroke-linejoin="round"/>
</g>
</g>
<defs>
<clipPath id="clip0_55_53">
<rect width="24" height="26.7845" fill="white"/>
</clipPath>
</defs>
</svg>
