<svg width="24" height="24" viewBox="0 0 24 24" fill="none" xmlns="http://www.w3.org/2000/svg">
<path d="M19.136 10.1016L12.312 0.960812C12.2756 0.911051 12.228 0.870576 12.173 0.842675C12.118 0.814773 12.0572 0.800232 11.9956 0.800232C11.9339 0.800232 11.8732 0.814773 11.8182 0.842675C11.7632 0.870576 11.7156 0.911051 11.6792 0.960812L4.864 10.1016C4.4064 10.676 4.144 11.3184 4.144 12C4.144 14.5016 7.6576 16.536 12 16.536C16.3408 16.536 19.856 14.5016 19.856 12C19.856 11.3184 19.5928 10.676 19.136 10.1016Z" stroke="white" stroke-width="1.5" stroke-linecap="round" stroke-linejoin="round"/>
<path d="M12 0.80481L10.12 16.4L12 23.1952" stroke="white" stroke-width="1.5" stroke-linecap="round" stroke-linejoin="round"/>
<path d="M4.864 13.888L11.688 23.04C11.7244 23.0899 11.772 23.1305 11.8271 23.1585C11.8821 23.1865 11.943 23.2011 12.0048 23.2011C12.0666 23.2011 12.1275 23.1865 12.1825 23.1585C12.2376 23.1305 12.2852 23.0899 12.3216 23.04L19.1456 13.8896" stroke="white" stroke-width="1.5" stroke-linecap="round" stroke-linejoin="round"/>
</svg>
